<svg width="198" height="48" viewBox="0 0 198 48" fill="none" xmlns="http://www.w3.org/2000/svg">
<path d="M11.6819 37.2613C9.93963 37.2613 8.37163 36.9627 6.97785 36.3653C5.58408 35.7431 4.48896 34.872 3.69252 33.752C2.89608 32.632 2.49785 31.3253 2.49785 29.832H7.05252C7.15208 30.952 7.58763 31.8729 8.35919 32.5947C9.15563 33.3164 10.2632 33.6773 11.6819 33.6773C13.1503 33.6773 14.2952 33.3289 15.1165 32.632C15.9379 31.9102 16.3485 30.9893 16.3485 29.8693C16.3485 28.9982 16.0872 28.2889 15.5645 27.7413C15.0667 27.1938 14.4321 26.7707 13.6605 26.472C12.9139 26.1733 11.8685 25.8498 10.5245 25.5013C8.83208 25.0533 7.45074 24.6053 6.38052 24.1573C5.33519 23.6844 4.43919 22.9627 3.69252 21.992C2.94585 21.0213 2.57252 19.7271 2.57252 18.1093C2.57252 16.616 2.94585 15.3093 3.69252 14.1893C4.43919 13.0693 5.48452 12.2107 6.82852 11.6133C8.17252 11.016 9.72808 10.7173 11.4952 10.7173C14.009 10.7173 16.0623 11.352 17.6552 12.6213C19.273 13.8658 20.169 15.5831 20.3432 17.7733H15.6392C15.5645 16.8276 15.1165 16.0187 14.2952 15.3467C13.4739 14.6747 12.3912 14.3387 11.0472 14.3387C9.82763 14.3387 8.83208 14.6498 8.06052 15.272C7.28897 15.8942 6.90319 16.7902 6.90319 17.96C6.90319 18.7564 7.13963 19.416 7.61252 19.9387C8.1103 20.4364 8.73252 20.8347 9.47919 21.1333C10.2259 21.432 11.2463 21.7556 12.5405 22.104C14.2579 22.5769 15.6516 23.0498 16.7219 23.5227C17.817 23.9956 18.7379 24.7298 19.4845 25.7253C20.2561 26.696 20.6419 28.0027 20.6419 29.6453C20.6419 30.9644 20.281 32.2089 19.5592 33.3787C18.8623 34.5484 17.8294 35.4942 16.4605 36.216C15.1165 36.9129 13.5236 37.2613 11.6819 37.2613Z" fill="#002F1E"/>
<g clip-path="url(#clip0_425_15)">
<path d="M49.6369 24.8961C49.6202 25.1452 49.5965 25.3923 49.5652 25.6387C49.3856 27.094 48.9681 28.5013 48.3208 29.8327C47.5643 31.3875 46.5307 32.7607 45.2487 33.9139C45.1241 34.026 44.9982 34.1353 44.8701 34.2424C44.749 34.3434 44.6265 34.4415 44.5026 34.5375C43.3577 35.4214 42.0834 36.1091 40.7039 36.5858C39.6794 36.9394 38.6285 37.1663 37.5623 37.2637V33.7761C38.2262 33.6919 38.8923 33.5388 39.55 33.3112C40.6768 32.9221 41.6867 32.3487 42.5594 31.636C42.604 31.6012 42.6485 31.5643 42.6917 31.5267C42.7425 31.4842 42.7926 31.4411 42.8427 31.3972C42.8636 31.3798 42.8838 31.3618 42.9032 31.3437C42.9554 31.2977 43.0069 31.2504 43.0578 31.2024C44.639 29.7241 45.6893 27.7614 46.0484 25.6387C46.2217 24.6156 46.2349 23.5556 46.0693 22.4956C46.0658 22.4712 46.0623 22.4476 46.0581 22.4232H49.5736C49.5763 22.4476 49.5791 22.4712 49.5819 22.4956C49.6731 23.289 49.6912 24.0908 49.6369 24.8961Z" fill="#01A56B"/>
<path d="M48.7752 19.1552H44.9118C42.6206 15.0886 37.6847 13.1127 33.1169 14.6905C27.975 16.4666 25.2467 22.0749 27.0229 27.2168C28.5714 31.701 33.0355 34.35 37.5622 33.7765V37.264C38.6284 37.1666 39.6793 36.9397 40.7038 36.5862C42.0833 36.1094 43.3576 35.4218 44.5025 34.5379C43.3555 35.4287 42.0756 36.1212 40.6857 36.6008C38.9868 37.1882 37.2204 37.4241 35.438 37.303C33.7175 37.1868 32.0569 36.7448 30.5021 35.9883C28.9466 35.2311 27.5727 34.1975 26.4194 32.9162C25.2244 31.5876 24.321 30.0529 23.7336 28.3533C23.1462 26.6538 22.9096 24.888 23.03 23.1049C23.1469 21.3851 23.5896 19.7245 24.3461 18.169C25.1026 16.6135 26.1362 15.2403 27.4182 14.087C28.7461 12.892 30.2815 11.988 31.9811 11.4012C33.6807 10.8138 35.4464 10.5772 37.2288 10.6976C37.3401 10.7053 37.4515 10.7136 37.5622 10.7247V10.708C39.1671 10.8535 40.7192 11.2864 42.1828 11.9991C43.7996 12.7849 45.2152 13.8671 46.39 15.2131C47.4131 16.3845 48.2142 17.7083 48.7752 19.1552Z" fill="#01A56B"/>
<path d="M46.0576 22.4232C46.2351 23.5076 46.2254 24.5926 46.0479 25.6387H43.2305C43.4693 24.5808 43.4588 23.4776 43.1992 22.4232H46.0576Z" fill="#01A56B"/>
<path d="M39.5817 25.4918C39.027 26.6757 37.8243 27.4956 36.4296 27.4956C34.508 27.4956 32.9497 25.9379 32.9497 24.0156C32.9497 22.0933 34.508 20.5357 36.4296 20.5357C37.825 20.5357 39.0284 21.357 39.5817 22.5422C39.574 22.497 39.5657 22.4525 39.5566 22.4079H43.2022C42.477 19.3393 39.7202 17.0558 36.4296 17.0558C32.5863 17.0558 29.4697 20.1724 29.4697 24.0156C29.4697 27.8589 32.5863 30.9755 36.4296 30.9755C39.7202 30.9755 42.477 28.6927 43.2022 25.6234H39.5566C39.5657 25.5795 39.574 25.5357 39.5817 25.4918Z" fill="#ED4640"/>
<path d="M39.5099 22.4232C39.725 22.9153 39.8454 23.4595 39.8454 24.0309C39.8454 24.6023 39.7264 25.1459 39.5113 25.6387H39.5106C37.8834 25.6387 36.2778 25.2601 34.8225 24.5321C34.4098 24.326 34.4098 23.7365 34.8225 23.5305C36.2778 22.8025 37.8834 22.4239 39.5106 22.4239L39.5099 22.4232Z" fill="#ED4640"/>
</g>
<path d="M63.7155 32.056H71.2355V35H60.0675V12.76H63.7155V32.056ZM90.4462 25.752C90.4462 26.4133 90.4036 27.0107 90.3182 27.544H76.8462C76.9529 28.952 77.4756 30.0827 78.4142 30.936C79.3529 31.7893 80.5049 32.216 81.8702 32.216C83.8329 32.216 85.2196 31.3947 86.0302 29.752H89.9662C89.4329 31.3733 88.4622 32.7067 87.0542 33.752C85.6676 34.776 83.9396 35.288 81.8702 35.288C80.1849 35.288 78.6702 34.9147 77.3262 34.168C76.0036 33.4 74.9582 32.3333 74.1902 30.968C73.4436 29.5813 73.0702 27.9813 73.0702 26.168C73.0702 24.3547 73.4329 22.7653 74.1582 21.4C74.9049 20.0133 75.9396 18.9467 77.2622 18.2C78.6062 17.4533 80.1422 17.08 81.8702 17.08C83.5342 17.08 85.0169 17.4427 86.3182 18.168C87.6196 18.8933 88.6329 19.9173 89.3582 21.24C90.0836 22.5413 90.4462 24.0453 90.4462 25.752ZM86.6382 24.6C86.6169 23.256 86.1369 22.1787 85.1982 21.368C84.2596 20.5573 83.0969 20.152 81.7102 20.152C80.4516 20.152 79.3742 20.5573 78.4782 21.368C77.5822 22.1573 77.0489 23.2347 76.8782 24.6H86.6382ZM92.8202 26.104C92.8202 24.3333 93.1829 22.7653 93.9082 21.4C94.6549 20.0347 95.6576 18.9787 96.9162 18.232C98.1962 17.464 99.6042 17.08 101.14 17.08C102.527 17.08 103.732 17.3573 104.756 17.912C105.802 18.4453 106.634 19.1173 107.252 19.928V17.368H110.932V35H107.252V32.376C106.634 33.208 105.791 33.9013 104.724 34.456C103.658 35.0107 102.442 35.288 101.076 35.288C99.5616 35.288 98.1749 34.904 96.9162 34.136C95.6576 33.3467 94.6549 32.2587 93.9082 30.872C93.1829 29.464 92.8202 27.8747 92.8202 26.104ZM107.252 26.168C107.252 24.952 106.996 23.896 106.484 23C105.994 22.104 105.343 21.4213 104.532 20.952C103.722 20.4827 102.847 20.248 101.908 20.248C100.97 20.248 100.095 20.4827 99.2842 20.952C98.4736 21.4 97.8122 22.072 97.3002 22.968C96.8096 23.8427 96.5642 24.888 96.5642 26.104C96.5642 27.32 96.8096 28.3867 97.3002 29.304C97.8122 30.2213 98.4736 30.9253 99.2842 31.416C100.116 31.8853 100.991 32.12 101.908 32.12C102.847 32.12 103.722 31.8853 104.532 31.416C105.343 30.9467 105.994 30.264 106.484 29.368C106.996 28.4507 107.252 27.384 107.252 26.168ZM119.372 19.928C119.905 19.032 120.609 18.3387 121.484 17.848C122.38 17.336 123.436 17.08 124.652 17.08V20.856H123.724C122.294 20.856 121.206 21.2187 120.46 21.944C119.734 22.6693 119.372 23.928 119.372 25.72V35H115.724V17.368H119.372V19.928ZM136.901 17.08C138.288 17.08 139.525 17.368 140.613 17.944C141.722 18.52 142.586 19.3733 143.205 20.504C143.824 21.6347 144.133 23 144.133 24.6V35H140.517V25.144C140.517 23.5653 140.122 22.36 139.333 21.528C138.544 20.6747 137.466 20.248 136.101 20.248C134.736 20.248 133.648 20.6747 132.837 21.528C132.048 22.36 131.653 23.5653 131.653 25.144V35H128.005V17.368H131.653V19.384C132.25 18.6587 133.008 18.0933 133.925 17.688C134.864 17.2827 135.856 17.08 136.901 17.08ZM150.642 15.032C149.981 15.032 149.426 14.808 148.978 14.36C148.53 13.912 148.306 13.3573 148.306 12.696C148.306 12.0347 148.53 11.48 148.978 11.032C149.426 10.584 149.981 10.36 150.642 10.36C151.282 10.36 151.826 10.584 152.274 11.032C152.722 11.48 152.946 12.0347 152.946 12.696C152.946 13.3573 152.722 13.912 152.274 14.36C151.826 14.808 151.282 15.032 150.642 15.032ZM152.434 17.368V35H148.786V17.368H152.434ZM166.12 17.08C167.506 17.08 168.744 17.368 169.832 17.944C170.941 18.52 171.805 19.3733 172.424 20.504C173.042 21.6347 173.352 23 173.352 24.6V35H169.736V25.144C169.736 23.5653 169.341 22.36 168.552 21.528C167.762 20.6747 166.685 20.248 165.32 20.248C163.954 20.248 162.866 20.6747 162.056 21.528C161.266 22.36 160.872 23.5653 160.872 25.144V35H157.224V17.368H160.872V19.384C161.469 18.6587 162.226 18.0933 163.144 17.688C164.082 17.2827 165.074 17.08 166.12 17.08ZM185.109 17.08C186.474 17.08 187.68 17.3573 188.725 17.912C189.792 18.4453 190.624 19.1173 191.221 19.928V17.368H194.901V35.288C194.901 36.9093 194.56 38.3493 193.877 39.608C193.194 40.888 192.202 41.8907 190.901 42.616C189.621 43.3413 188.085 43.704 186.293 43.704C183.904 43.704 181.92 43.1387 180.341 42.008C178.762 40.8987 177.866 39.384 177.653 37.464H181.269C181.546 38.3813 182.133 39.1173 183.029 39.672C183.946 40.248 185.034 40.536 186.293 40.536C187.765 40.536 188.949 40.088 189.845 39.192C190.762 38.296 191.221 36.9947 191.221 35.288V32.344C190.602 33.176 189.76 33.88 188.693 34.456C187.648 35.0107 186.453 35.288 185.109 35.288C183.573 35.288 182.165 34.904 180.885 34.136C179.626 33.3467 178.624 32.2587 177.877 30.872C177.152 29.464 176.789 27.8747 176.789 26.104C176.789 24.3333 177.152 22.7653 177.877 21.4C178.624 20.0347 179.626 18.9787 180.885 18.232C182.165 17.464 183.573 17.08 185.109 17.08ZM191.221 26.168C191.221 24.952 190.965 23.896 190.453 23C189.962 22.104 189.312 21.4213 188.501 20.952C187.69 20.4827 186.816 20.248 185.877 20.248C184.938 20.248 184.064 20.4827 183.253 20.952C182.442 21.4 181.781 22.072 181.269 22.968C180.778 23.8427 180.533 24.888 180.533 26.104C180.533 27.32 180.778 28.3867 181.269 29.304C181.781 30.2213 182.442 30.9253 183.253 31.416C184.085 31.8853 184.96 32.12 185.877 32.12C186.816 32.12 187.69 31.8853 188.501 31.416C189.312 30.9467 189.962 30.264 190.453 29.368C190.965 28.4507 191.221 27.384 191.221 26.168Z" fill="#002F1E"/>
<defs>
<clipPath id="clip0_425_15">
<rect width="26.6681" height="26.6667" fill="white" transform="translate(22.999 10.6667)"/>
</clipPath>
</defs>
</svg>
